<?xml version="1.0" encoding="iso-8859-1"?>
<!-- Generator: Adobe Illustrator 19.0.0, SVG Export Plug-In . SVG Version: 6.00 Build 0)  -->
<svg version="1.1" id="Layer_1" xmlns="http://www.w3.org/2000/svg" xmlns:xlink="http://www.w3.org/1999/xlink" x="0px" y="0px"
	 viewBox="0 0 508 508" style="enable-background:new 0 0 508 508;" xml:space="preserve">
<circle style="fill:#324A5E;" cx="254" cy="254" r="254"/>
<polygon style="fill:#FFFFFF;" points="97.2,188.4 66,179.2 66,166.4 97.2,157.2 "/>
<path style="fill:#E6E9EE;" d="M116.8,143.2c-16.4,0-29.6,13.2-29.6,29.6s13.2,29.6,29.6,29.6H140v-59.2H116.8z"/>
<path style="fill:#CED5E0;" d="M146.4,210.8h32.4v-75.6h-32.4c-3.2,0-6,2.8-6,6v64C140.4,208,142.8,210.8,146.4,210.8z"/>
<path style="fill:#FF7058;" d="M373.6,122.4h-182c-7.2,0-12.8,5.6-12.8,12.8v75.2c0,7.2,5.6,12.8,12.8,12.8h182
	c20,0,36.4-16.4,36.4-36.4v-28.4C410,138.8,393.6,122.4,373.6,122.4z"/>
<path style="fill:#FFD05B;" d="M191.6,122.4c-7.2,0-12.8,5.6-12.8,12.8v75.2c0,7.2,5.6,12.8,12.8,12.8h51.2V122.4H191.6z"/>
<path style="fill:#FF7058;" d="M367.6,236H328c0,0,36.8,62,32.8,123.6c0,0,0,0,0,0.4c-0.8,11.2,1.2,22.4,5.6,32.4
	c5.2,12,4.8,28-35.2,29.6H224c-12,0-19.6-13.2-13.2-23.6l8.4-13.2c4.4-6.8,12-11.2,20.4-10.8c24.8,0.8,75.2-0.8,58.8-28
	c-11.6-19.2-12-40.4-10-56c1.2-8.4-5.6-16-14.4-14.8c0,0,0,0-0.4,0c-2.4,0.4-4-2.4-2.8-4.4s2.4-4.4,3.2-7.6c2.4-8,2.8-19.2-8.4-27.6
	c-3.2-2.8-7.6-4-12-3.6c-0.4,0-0.8,0-1.2,0c-1.2,0-2,0-3.2-0.4c-4.8-1.2-8.4-4.4-10.4-8.8H382C380.8,230.4,375.2,236,367.6,236z"/>
<g>
	<path style="fill:#FFD05B;" d="M274,263.6l-13.6,5.2c-2.4,0.8-4.4-1.2-4-3.6c4.8-16-2.4-27.2-6.8-32.8c1.2,0.4,2,0.4,3.2,0.4
		c0.4,0,0.8,0,1.2,0c4.4-0.4,8.4,0.8,12,3.6C276.8,244.4,276.4,255.6,274,263.6z"/>
	<path style="fill:#FFD05B;" d="M382,223.2c-0.8,6.8-6.8,12.4-14.4,12.4H328c0,0,36.8,62,32.8,123.6l-1.6-0.8
		c-11.6-6-19.6-17.2-21.6-30l-6-36.4c-2.4-14-15.2-24-29.6-22.8l-6.4,0.8c-5.2,0.4-10-3.2-10.8-8.4l-3.2-18c-1.2-6,3.6-11.6,10-11.6
		h2c6,0,12-3.2,14.8-8.8H382z"/>
</g>
<path style="fill:#FFFFFF;" d="M312,411.2h-49.6c-6,0-10.4-4.8-10.4-10.4v-1.2c0-6,4.8-10.4,10.4-10.4H312c6,0,10.4,4.8,10.4,10.4
	v1.2C322.4,406.4,318,411.2,312,411.2z"/>
<g>
	<path style="fill:#F1543F;" d="M333.6,197.6L333.6,197.6c-3.2,0-5.6-2.4-5.6-5.6v-43.2c0-3.2,2.4-5.6,5.6-5.6l0,0
		c3.2,0,5.6,2.4,5.6,5.6V192C339.2,195.2,336.8,197.6,333.6,197.6z"/>
	<path style="fill:#F1543F;" d="M350.8,197.2L350.8,197.2c-3.2,0-5.6-2.4-5.6-5.6v-43.2c0-3.2,2.4-5.6,5.6-5.6l0,0
		c3.2,0,5.6,2.4,5.6,5.6v43.2C356.4,194.8,354,197.2,350.8,197.2z"/>
	<path style="fill:#F1543F;" d="M368,197.2L368,197.2c-3.2,0-5.6-2.4-5.6-5.6v-43.2c0-3.2,2.4-5.6,5.6-5.6l0,0
		c3.2,0,5.6,2.4,5.6,5.6v43.2C373.6,194.8,371.2,197.2,368,197.2z"/>
</g>
<g>
</g>
<g>
</g>
<g>
</g>
<g>
</g>
<g>
</g>
<g>
</g>
<g>
</g>
<g>
</g>
<g>
</g>
<g>
</g>
<g>
</g>
<g>
</g>
<g>
</g>
<g>
</g>
<g>
</g>
</svg>
